<?xml version="1.0" encoding="UTF-8" standalone="no"?>
<!-- Created with Inkscape (http://www.inkscape.org/) -->

<svg
   width="609.59998mm"
   height="342.89999mm"
   viewBox="0 0 609.59998 342.89999"
   version="1.1"
   id="svg5"
   xml:space="preserve"
   inkscape:version="1.2.1 (9c6d41e410, 2022-07-14)"
   sodipodi:docname="title.svg"
   inkscape:export-filename="title.png"
   inkscape:export-xdpi="144"
   inkscape:export-ydpi="144"
   xmlns:inkscape="http://www.inkscape.org/namespaces/inkscape"
   xmlns:sodipodi="http://sodipodi.sourceforge.net/DTD/sodipodi-0.dtd"
   xmlns="http://www.w3.org/2000/svg"
   xmlns:svg="http://www.w3.org/2000/svg"><sodipodi:namedview
     id="namedview7"
     pagecolor="#505050"
     bordercolor="#eeeeee"
     borderopacity="1"
     inkscape:showpageshadow="0"
     inkscape:pageopacity="0"
     inkscape:pagecheckerboard="0"
     inkscape:deskcolor="#505050"
     inkscape:document-units="mm"
     showgrid="false"
     showguides="true"
     inkscape:zoom="0.2973261"
     inkscape:cx="995.53991"
     inkscape:cy="871.09742"
     inkscape:window-width="1920"
     inkscape:window-height="986"
     inkscape:window-x="-11"
     inkscape:window-y="-11"
     inkscape:window-maximized="1"
     inkscape:current-layer="layer1"><sodipodi:guide
       position="305.8098,167.84931"
       orientation="1,0"
       id="guide450"
       inkscape:locked="false" /></sodipodi:namedview><defs
     id="defs2"><inkscape:path-effect
       effect="offset"
       id="path-effect6626"
       is_visible="true"
       lpeversion="1.2"
       linejoin_type="miter"
       unit="mm"
       offset="2"
       miter_limit="4"
       attempt_force_join="false"
       update_on_knot_move="true" /><inkscape:path-effect
       effect="offset"
       id="path-effect6506"
       is_visible="true"
       lpeversion="1.2"
       linejoin_type="miter"
       unit="mm"
       offset="3"
       miter_limit="4"
       attempt_force_join="false"
       update_on_knot_move="true" /><inkscape:path-effect
       effect="offset"
       id="path-effect6500"
       is_visible="true"
       lpeversion="1.2"
       linejoin_type="miter"
       unit="mm"
       offset="6.5"
       miter_limit="4"
       attempt_force_join="false"
       update_on_knot_move="true" /><inkscape:path-effect
       effect="offset"
       id="path-effect6494"
       is_visible="true"
       lpeversion="1.2"
       linejoin_type="miter"
       unit="mm"
       offset="6"
       miter_limit="4"
       attempt_force_join="false"
       update_on_knot_move="true" /><inkscape:path-effect
       effect="offset"
       id="path-effect6488"
       is_visible="true"
       lpeversion="1.2"
       linejoin_type="miter"
       unit="mm"
       offset="4"
       miter_limit="4"
       attempt_force_join="false"
       update_on_knot_move="true" /><inkscape:path-effect
       effect="offset"
       id="path-effect6482"
       is_visible="true"
       lpeversion="1.2"
       linejoin_type="miter"
       unit="mm"
       offset="4.5"
       miter_limit="4"
       attempt_force_join="false"
       update_on_knot_move="true" /><inkscape:path-effect
       effect="offset"
       id="path-effect6476"
       is_visible="true"
       lpeversion="1.2"
       linejoin_type="miter"
       unit="mm"
       offset="3"
       miter_limit="4"
       attempt_force_join="false"
       update_on_knot_move="true" /><inkscape:path-effect
       effect="offset"
       id="path-effect6470"
       is_visible="true"
       lpeversion="1.2"
       linejoin_type="miter"
       unit="mm"
       offset="2.5"
       miter_limit="4"
       attempt_force_join="false"
       update_on_knot_move="true" /><inkscape:path-effect
       effect="offset"
       id="path-effect6464"
       is_visible="true"
       lpeversion="1.2"
       linejoin_type="miter"
       unit="mm"
       offset="2.5"
       miter_limit="4"
       attempt_force_join="false"
       update_on_knot_move="true" /><inkscape:path-effect
       effect="offset"
       id="path-effect6440"
       is_visible="true"
       lpeversion="1.2"
       linejoin_type="miter"
       unit="mm"
       offset="2.5"
       miter_limit="4"
       attempt_force_join="false"
       update_on_knot_move="true" /><inkscape:path-effect
       effect="offset"
       id="path-effect6280"
       is_visible="true"
       lpeversion="1.2"
       linejoin_type="miter"
       unit="mm"
       offset="2"
       miter_limit="4"
       attempt_force_join="false"
       update_on_knot_move="true" /><inkscape:path-effect
       effect="offset"
       id="path-effect6101"
       is_visible="true"
       lpeversion="1.2"
       linejoin_type="miter"
       unit="mm"
       offset="1"
       miter_limit="4"
       attempt_force_join="false"
       update_on_knot_move="true" /></defs><g
     inkscape:label="Layer 1"
     inkscape:groupmode="layer"
     id="layer1"
     transform="translate(50.799999,28.575001)"><path
       style="fill:#1e293b;fill-opacity:1;stroke:none;stroke-width:0.5;stroke-linecap:round;stop-color:#000000"
       inkscape:path-effect="#path-effect6506"
       inkscape:original-d="M 98.708085,213.69637 A 34.810764,4.4519887 5.278005 0 1 63.635389,214.9273 34.810764,4.4519887 5.278005 0 1 29.381744,207.29201 34.810764,4.4519887 5.278005 0 1 64.454449,206.06108 34.810764,4.4519887 5.278005 0 1 98.708085,213.69637 Z"
       d="M 39.71875,202.09766 C 33.281823,202.32358 26.78101,202.83386 26.394531,207.01758 26.254404,208.53465 27.069912,209.63239 27.707031,210.23438 31.103717,213.44373 46.077599,216.31758 63.359375,217.91406 80.641177,219.51056 95.887121,219.42924 99.814453,216.89648 100.55109,216.42142 101.55516,215.48987 101.69531,213.97266 101.83544,212.45557 101.01987,211.35786 100.38281,210.75586 96.986282,207.54622 82.012294,204.67071 64.730469,203.07422 55.080906,202.18279 46.209351,201.86986 39.71875,202.09766 Z"
       id="path6502" /><path
       style="fill:#1e293b;fill-opacity:1;stroke:none;stroke-width:0.5;stroke-linecap:round;stop-color:#000000"
       inkscape:path-effect="#path-effect6500"
       inkscape:original-d="M 473.72815,291.21485 A 69.977234,8.9494696 5.278005 0 1 403.22437,293.68929 69.977234,8.9494696 5.278005 0 1 334.36709,278.34068 69.977234,8.9494696 5.278005 0 1 404.87086,275.86624 69.977234,8.9494696 5.278005 0 1 473.72815,291.21485 Z"
       d="M 355.12891,267.42773 C 342.17534,267.88235 328.71395,268.87161 327.89453,277.74219 327.59442,280.99086 329.34461,283.33034 330.68164,284.59375 337.651,291.17935 367.87856,296.95206 402.62695,300.16211 437.37535,303.37217 468.14913,303.23634 476.20703,298.03906 477.75291,297.04198 479.90107,295.06116 480.20117,291.8125 480.50127,288.56385 478.75116,286.22432 477.41406,284.96094 470.44453,278.37563 440.2171,272.60458 405.46875,269.39453 386.05952,267.6015 368.19987,266.96898 355.12891,267.42773 Z"
       id="path6496" /><path
       style="fill:#1e293b;fill-opacity:1;stroke:none;stroke-width:0.5;stroke-linecap:round;stop-color:#000000"
       inkscape:path-effect="#path-effect6494"
       inkscape:original-d="M 253.63134,277.23368 A 64.196945,8.2102213 5.278005 0 1 188.95132,279.50371 64.196945,8.2102213 5.278005 0 1 125.78183,265.42294 64.196945,8.2102213 5.278005 0 1 190.46181,263.1529 64.196945,8.2102213 5.278005 0 1 253.63134,277.23368 Z"
       d="M 144.82812,255.375 C 132.94322,255.79212 120.5619,256.69573 119.80664,264.87109 119.5299,267.86709 121.14392,270.0243 122.375,271.1875 128.78001,277.23936 156.51976,282.53356 188.39844,285.47852 220.27713,288.42347 248.51865,288.30152 255.92383,283.52539 257.34715,282.60739 259.32867,280.78311 259.60547,277.78711 259.88223,274.79111 258.26813,272.63394 257.03711,271.4707 250.63228,265.41853 222.89243,260.1227 191.01367,257.17773 173.20651,255.53271 156.82075,254.95411 144.82812,255.375 Z"
       id="path6490" /><path
       style="fill:#1e293b;fill-opacity:1;stroke:none;stroke-width:0.5;stroke-linecap:round;stop-color:#000000"
       inkscape:path-effect="#path-effect6488"
       inkscape:original-d="M 87.61202,242.52526 A 48.312176,6.1787 5.278005 0 1 38.936312,244.23361 48.312176,6.1787 5.278005 0 1 -8.6026552,233.63695 48.312176,6.1787 5.278005 0 1 40.073047,231.9286 48.312176,6.1787 5.278005 0 1 87.61202,242.52526 Z"
       d="M 5.7480469,226.58984 C -3.1804605,226.9032 -12.064589,227.62572 -12.585938,233.26953 -12.774034,235.30564 -11.67703,236.78267 -10.8125,237.59961 -6.147933,242.00739 14.586593,246.00135 38.568359,248.2168 62.550126,250.43223 83.665489,250.30479 89.058594,246.82617 90.05816,246.18144 91.405669,244.92865 91.59375,242.89258 91.781845,240.85647 90.684842,239.37944 89.820312,238.5625 85.155745,234.15472 64.421218,230.16075 40.439453,227.94531 27.051643,226.70855 14.748372,226.27396 5.7480469,226.58984 Z"
       id="path6484" /><path
       style="fill:#1e293b;fill-opacity:1;stroke:none;stroke-width:0.5;stroke-linecap:round;stop-color:#000000"
       inkscape:path-effect="#path-effect6482"
       inkscape:original-d="M 544.75289,262.34393 A 48.312176,6.1787 5.278005 0 1 496.07718,264.05228 48.312176,6.1787 5.278005 0 1 448.53822,253.45562 48.312176,6.1787 5.278005 0 1 497.21392,251.74727 48.312176,6.1787 5.278005 0 1 544.75289,262.34393 Z"
       d="M 462.87305,245.9082 C 453.92955,246.22209 444.62552,246.90409 444.05859,253.04102 443.85091,255.28916 445.06176,256.90758 445.98633,257.78125 450.80168,262.33151 471.67359,266.31696 495.66406,268.5332 519.65454,270.74945 540.90161,270.65562 546.46875,267.06445 547.5377,266.37491 549.02477,265.00573 549.23242,262.75781 549.44009,260.50986 548.22927,258.89126 547.30469,258.01758 542.48952,253.46751 521.61933,249.48381 497.62891,247.26758 484.22852,246.02965 471.89784,245.59146 462.87305,245.9082 Z"
       id="path6478" /><path
       style="fill:#1e293b;fill-opacity:1;stroke:none;stroke-width:0.5;stroke-linecap:round;stop-color:#000000"
       inkscape:path-effect="#path-effect6476"
       inkscape:original-d="M 452.3296,238.63334 A 36.380695,4.6527691 5.278005 0 1 415.67516,239.91978 36.380695,4.6527691 5.278005 0 1 379.87671,231.94014 36.380695,4.6527691 5.278005 0 1 416.53115,230.6537 36.380695,4.6527691 5.278005 0 1 452.3296,238.63334 Z"
       d="M 390.68359,226.64648 C 383.96062,226.88244 377.28211,227.42667 376.89062,231.66406 376.74946,233.1922 377.57114,234.30222 378.2207,234.91602 381.72967,238.23177 397.34153,241.23798 415.40039,242.90625 433.45924,244.57453 449.35519,244.47815 453.41211,241.86133 454.16312,241.37691 455.17523,240.43631 455.31641,238.9082 455.45757,237.38008 454.63595,236.27003 453.98633,235.65625 450.47721,232.34079 434.86545,229.33624 416.80664,227.66797 406.7256,226.73668 397.46075,226.40863 390.68359,226.64648 Z"
       id="path6472" /><path
       style="fill:#1e293b;fill-opacity:1;stroke:none;stroke-width:0.5;stroke-linecap:round;stop-color:#000000"
       inkscape:path-effect="#path-effect6470"
       inkscape:original-d="M 184.30598,210.4543 A 31.356915,4.010272 5.278005 0 1 152.71313,211.5631 31.356915,4.010272 5.278005 0 1 121.85805,204.68536 31.356915,4.010272 5.278005 0 1 153.45092,203.57656 31.356915,4.010272 5.278005 0 1 184.30598,210.4543 Z"
       d="M 131.17578,200.20898 C 125.38368,200.41226 119.69684,200.88671 119.36719,204.45508 119.24888,205.73583 119.94061,206.66821 120.49023,207.1875 123.48892,210.02072 136.91882,212.61497 152.48242,214.05273 168.04601,215.4905 181.72625,215.40183 185.19336,213.16602 185.82884,212.75622 186.67856,211.96634 186.79688,210.68555 186.91519,209.40478 186.22535,208.47244 185.67578,207.95312 182.67724,205.11961 169.24529,202.52371 153.68164,201.08594 144.99472,200.28344 137.01272,200.00413 131.17578,200.20898 Z"
       id="path6466" /><path
       style="fill:#1e293b;fill-opacity:1;stroke:none;stroke-width:0.5;stroke-linecap:round;stop-color:#000000"
       inkscape:path-effect="#path-effect6464"
       inkscape:original-d="M 364.89705,224.48863 A 31.356915,4.010272 5.278005 0 1 333.3042,225.59742 31.356915,4.010272 5.278005 0 1 302.44913,218.71969 31.356915,4.010272 5.278005 0 1 334.04199,217.61088 31.356915,4.010272 5.278005 0 1 364.89705,224.48863 Z"
       d="M 311.76758,214.24219 C 305.97547,214.44548 300.28854,214.91992 299.95898,218.48828 299.84069,219.76905 300.53051,220.70139 301.08008,221.2207 304.07864,224.0542 317.5106,226.65012 333.07422,228.08789 348.63782,229.52565 362.31653,229.43542 365.7832,227.19922 366.41859,226.78936 367.2684,225.99937 367.38672,224.71875 367.50507,223.438 366.81329,222.50563 366.26367,221.98633 363.26501,219.15308 349.83511,216.55886 334.27148,215.12109 325.58485,214.31862 317.60492,214.03732 311.76758,214.24219 Z"
       id="path6460" /><path
       style="fill:#1e293b;fill-opacity:1;stroke:none;stroke-width:0.5;stroke-linecap:round;stop-color:#000000"
       inkscape:path-effect="#path-effect6440"
       inkscape:original-d="M 273.02843,215.05007 A 31.356915,4.010272 5.278005 0 1 241.43556,216.15887 31.356915,4.010272 5.278005 0 1 210.5805,209.28112 31.356915,4.010272 5.278005 0 1 242.17336,208.17233 31.356915,4.010272 5.278005 0 1 273.02843,215.05007 Z"
       d="M 219.89844,204.80469 C 214.10634,205.00798 208.41952,205.48248 208.08984,209.05078 207.9715,210.33153 208.66327,211.2639 209.21289,211.7832 212.21155,214.61645 225.64145,217.21067 241.20508,218.64844 256.76868,220.0862 270.44891,219.99754 273.91602,217.76172 274.55149,217.35192 275.40122,216.56204 275.51953,215.28125 275.63785,214.00048 274.948,213.06815 274.39844,212.54883 271.3999,209.71531 257.96794,207.1194 242.4043,205.68164 233.71739,204.87914 225.73537,204.59983 219.89844,204.80469 Z"
       id="path6310-2" /><path
       id="path6702"
       style="fill:#1e293b;fill-opacity:1;stroke:none;stroke-width:0.48587;stroke-linecap:round;stop-color:#000000"
       d="M 271.96735,218.50035 C 338.58914,225.36413 398.51701,234.87433 441.57327,244.69509 463.10141,249.6055 480.33249,254.57473 492.03959,259.30217 497.89281,261.66575 502.23905,263.91573 505.05767,266.01617 507.83292,268.08424 508.63096,269.62341 508.53075,270.62297 508.43053,271.62253 507.34265,272.96945 504.21414,274.42903 501.0366,275.91148 496.33275,277.22743 490.12983,278.34897 477.72368,280.59217 459.85852,281.94733 437.79605,282.36677 393.671,283.20563 333.08114,280.29762 266.45933,273.43386 199.83753,266.5701 139.90945,257.06164 96.853201,247.24087 75.325141,242.3305 58.094285,237.3595 46.387057,232.63206 40.533667,230.26837 36.189161,228.02032 33.370649,225.92001 30.595558,223.85204 29.795791,222.30976 29.895909,221.31126 29.996123,220.31168 31.083363,218.96676 34.212332,217.50694 37.390214,216.02434 42.094166,214.70673 48.296826,213.58521 60.702849,211.34206 78.567886,209.98864 100.63043,209.56919 144.75555,208.73033 205.34556,211.63661 271.96735,218.50035 Z M 274.24106,214.2821 C 203.97117,207.0113 139.96046,204.15753 93.297729,205.43283 69.966452,206.07047 50.887657,207.74224 37.490083,210.43469 30.791711,211.78084 25.369397,213.41368 21.546895,215.35626 17.665114,217.32898 14.851647,219.91639 14.540343,223.39957 14.229022,226.88274 16.532644,229.99967 19.993898,232.73214 23.401967,235.42264 28.435604,238.13951 34.773057,240.83454 47.448236,246.22474 65.881287,251.77783 88.672058,257.18772 134.25375,268.00755 197.59686,278.33102 267.86677,285.60182 338.13664,292.87264 402.14739,295.72642 448.81008,294.45111 472.14134,293.81345 491.22203,292.14188 504.61966,289.44944 511.3183,288.10323 516.7409,286.46827 520.56302,284.5259 524.44482,282.55316 527.25828,279.9657 527.56958,276.48254 527.88092,272.99938 525.57727,269.88249 522.11603,267.14998 518.70763,264.45923 513.67388,261.74453 507.33669,259.04958 494.66148,253.65936 476.22651,248.1061 453.43574,242.6962 407.85408,231.87639 344.51097,221.5529 274.24106,214.2821 Z" /><path
       style="fill:#f1f5f9;fill-opacity:1;stroke:none;stroke-width:0.5;stroke-linecap:round;stop-color:#000000"
       d="M 179.78229,150.45117 A 4.4519887,34.810764 70.22548 0 1 148.53047,166.41779 4.4519887,34.810764 70.22548 0 1 114.26625,174.00549 4.4519887,34.810764 70.22548 0 1 145.51808,158.03887 4.4519887,34.810764 70.22548 0 1 179.78229,150.45117 Z"
       transform="rotate(25.052525)"
       id="path6326" /><path
       style="fill:#f1f5f9;fill-opacity:1;stroke:none;stroke-width:0.5;stroke-linecap:round;stop-color:#000000"
       d="M 551.41804,61.140169 A 8.9494696,69.977234 70.22548 0 1 488.59505,93.236562 8.9494696,69.977234 70.22548 0 1 419.71651,108.48949 8.9494696,69.977234 70.22548 0 1 482.53949,76.393099 8.9494696,69.977234 70.22548 0 1 551.41804,61.140169 Z"
       transform="rotate(25.052525)"
       id="path6324" /><path
       style="fill:#f1f5f9;fill-opacity:1;stroke:none;stroke-width:0.5;stroke-linecap:round;stop-color:#000000"
       d="M 346.58701,141.45003 A 8.2102213,64.196945 70.22548 0 1 288.95334,170.89518 8.2102213,64.196945 70.22548 0 1 225.76434,184.88818 8.2102213,64.196945 70.22548 0 1 283.39799,155.44304 8.2102213,64.196945 70.22548 0 1 346.58701,141.45003 Z"
       transform="rotate(25.052525)"
       id="path6322" /><path
       style="fill:#f1f5f9;fill-opacity:1;stroke:none;stroke-width:0.5;stroke-linecap:round;stop-color:#000000"
       d="M 181.71363,180.78707 A 6.1787,48.312176 70.22548 0 1 138.34073,202.94637 6.1787,48.312176 70.22548 0 1 90.787087,213.47697 6.1787,48.312176 70.22548 0 1 134.15998,191.31767 6.1787,48.312176 70.22548 0 1 181.71363,180.78707 Z"
       transform="rotate(25.052525)"
       id="path6320" /><path
       style="fill:#f1f5f9;fill-opacity:1;stroke:none;stroke-width:0.5;stroke-linecap:round;stop-color:#000000"
       d="M 604.23887,5.1653859 A 6.1787,48.312176 70.22548 0 1 560.86597,27.324687 6.1787,48.312176 70.22548 0 1 513.31233,37.855284 6.1787,48.312176 70.22548 0 1 556.68522,15.695986 6.1787,48.312176 70.22548 0 1 604.23887,5.1653859 Z"
       transform="rotate(25.052525)"
       id="path6318" /><path
       style="fill:#f1f5f9;fill-opacity:1;stroke:none;stroke-width:0.5;stroke-linecap:round;stop-color:#000000"
       d="M 510.69462,23.301414 A 4.6527691,36.380695 70.22548 0 1 478.03337,39.988115 4.6527691,36.380695 70.22548 0 1 442.22387,47.918008 4.6527691,36.380695 70.22548 0 1 474.88512,31.231311 4.6527691,36.380695 70.22548 0 1 510.69462,23.301414 Z"
       transform="rotate(25.052525)"
       id="path6316" /><path
       style="fill:#f1f5f9;fill-opacity:1;stroke:none;stroke-width:0.5;stroke-linecap:round;stop-color:#000000"
       d="M 256.17836,111.74716 A 4.010272,31.356915 70.22548 0 1 228.02728,126.1296 4.010272,31.356915 70.22548 0 1 197.16268,132.96447 4.010272,31.356915 70.22548 0 1 225.31377,118.58202 4.010272,31.356915 70.22548 0 1 256.17836,111.74716 Z"
       transform="rotate(25.052525)"
       id="path6314" /><path
       style="fill:#f1f5f9;fill-opacity:1;stroke:none;stroke-width:0.5;stroke-linecap:round;stop-color:#000000"
       d="M 425.72224,47.990039 A 4.010272,31.356915 70.22548 0 1 397.57116,62.372481 4.010272,31.356915 70.22548 0 1 366.70657,69.207348 4.010272,31.356915 70.22548 0 1 394.85765,54.824892 4.010272,31.356915 70.22548 0 1 425.72224,47.990039 Z"
       transform="rotate(25.052525)"
       id="path6312" /><path
       style="fill:#f1f5f9;fill-opacity:1;stroke:none;stroke-width:0.5;stroke-linecap:round;stop-color:#000000"
       d="M 338.49987,78.341129 A 4.010272,31.356915 70.22548 0 1 310.34878,92.723584 4.010272,31.356915 70.22548 0 1 279.48419,99.558438 4.010272,31.356915 70.22548 0 1 307.63527,85.175996 4.010272,31.356915 70.22548 0 1 338.49987,78.341129 Z"
       transform="rotate(25.052525)"
       id="path6310" /><g
       aria-label="Ptolemy's Epicycles"
       id="text398-9"
       style="font-weight:bold;font-size:44.625px;line-height:1.25;font-family:Comfortaa;-inkscape-font-specification:'Comfortaa Bold';fill:#1e293b;fill-opacity:1"
       inkscape:path-effect="#path-effect6626"><path
         d="M 40.453125,45.160156 C 39.241161,45.160156 38.285746,45.538217 37.416016,46.396484 36.494135,47.270598 36.132812,48.264201 36.132812,49.480469 V 79.691406 C 36.132812,80.915481 36.511993,81.87918 37.388672,82.755859 38.265351,83.632539 39.22905,84.011719 40.453125,84.011719 41.669393,84.011719 42.662995,83.650396 43.537109,82.728516 44.395377,81.858785 44.773438,80.90337 44.773438,79.691406 V 71.917969 H 49.378906 C 51.91221,71.917969 54.2149,71.381165 56.279297,70.242188 58.321837,69.115269 59.927131,67.529891 61.064453,65.509766 62.238937,63.476516 62.802734,61.206321 62.802734,58.71875 62.802734,56.157777 62.248144,53.837354 61.076172,51.769531 59.946926,49.694908 58.34718,48.058863 56.300781,46.894531 54.233582,45.718366 51.921843,45.160156 49.378906,45.160156 Z M 61.076172,51.769531 C 61.079368,51.775404 61.084702,51.779277 61.087891,51.785156 L 61.068359,51.75 C 61.071854,51.756142 61.072688,51.763385 61.076172,51.769531 Z M 61.064453,65.509766 C 61.062373,65.513366 61.06263,65.517885 61.060547,65.521484 L 61.074219,65.498047 C 61.07167,65.502587 61.067007,65.50523 61.064453,65.509766 Z M 43.537109,82.728516 C 43.528533,82.737207 43.526252,82.747186 43.517578,82.755859 L 43.566406,82.707031 C 43.557239,82.716854 43.546304,82.718819 43.537109,82.728516 Z M 37.416016,46.396484 C 37.425712,46.38729 37.427678,46.376355 37.4375,46.367188 L 37.388672,46.416016 C 37.397346,46.407342 37.407325,46.405061 37.416016,46.396484 Z M 44.773438,53.443359 H 49.378906 C 50.423648,53.443359 51.272813,53.681657 51.962891,54.095703 52.685802,54.529451 53.259529,55.128175 53.6875,55.919922 L 53.693359,55.929688 53.699219,55.939453 C 54.10487,56.669626 54.339844,57.577283 54.339844,58.71875 54.339844,59.742603 54.111815,60.593386 53.710938,61.294922 53.294511,62.023669 52.728747,62.589431 52,63.005859 51.306185,63.402325 50.439354,63.634766 49.378906,63.634766 H 44.773438 Z"
         id="path6589"
         inkscape:original-d="M 40.452975,82.012032 Q 39.471225,82.012032 38.80185,81.342657 38.132475,80.673282 38.132475,79.691532 V 49.480407 Q 38.132475,48.454032 38.80185,47.829282 39.471225,47.159907 40.452975,47.159907 H 49.377975 Q 52.72485,47.159907 55.3131,48.632532 57.90135,50.105157 59.32935,52.738032 60.801975,55.326282 60.801975,58.717782 60.801975,61.975407 59.32935,64.519032 57.90135,67.062657 55.3131,68.490657 52.72485,69.918657 49.377975,69.918657 H 42.773475 V 79.691532 Q 42.773475,80.673282 42.1041,81.342657 41.47935,82.012032 40.452975,82.012032 Z M 42.773475,65.634657 H 49.377975 Q 51.430725,65.634657 52.9926,64.742157 54.554475,63.849657 55.446975,62.287782 56.339475,60.725907 56.339475,58.717782 56.339475,56.575782 55.446975,54.969282 54.554475,53.318157 52.9926,52.381032 51.430725,51.443907 49.377975,51.443907 H 42.773475 Z"
         style="fill:#1e293b;fill-opacity:1" /><path
         d="M 68.746094,47.837891 C 67.613748,47.837891 66.558653,48.214785 65.724609,49.048828 64.893054,49.880384 64.513672,50.936014 64.513672,52.068359 V 56.494141 H 64.460938 C 63.408442,56.494141 62.417382,56.79306 61.585938,57.560547 60.73874,58.342575 60.363281,59.376603 60.363281,60.458984 60.363281,61.59619 60.742797,62.487342 61.585938,63.265625 62.417383,64.033113 63.408442,64.332031 64.460938,64.332031 H 64.513672 V 73.355469 C 64.513672,75.28877 64.917248,77.068763 65.769531,78.699219 66.608284,80.303788 67.768624,81.603707 69.261719,82.574219 L 69.277344,82.583984 69.291016,82.591797 C 70.818468,83.546454 72.525892,84.011719 74.367188,84.011719 H 75.171875 C 76.339,84.011719 77.410853,83.70442 78.333984,82.908203 79.317202,82.088905 79.804688,81.072497 79.804688,79.78125 79.804686,78.698439 79.477903,77.691218 78.712891,76.849609 77.95791,75.98328 77.055423,75.548828 75.884766,75.548828 H 74.367188 C 74.118666,75.548828 73.790673,75.424828 73.509766,75.080078 73.197565,74.696923 72.976562,74.132122 72.976562,73.355469 V 64.332031 H 74.769531 C 75.822027,64.332031 76.813087,64.033112 77.644531,63.265625 78.48767,62.487343 78.867188,61.596193 78.867188,60.458984 78.867188,59.3766 78.491727,58.342574 77.644531,57.560547 76.813087,56.79306 75.822027,56.494141 74.769531,56.494141 H 72.976562 V 52.068359 C 72.976562,50.936014 72.597181,49.880384 71.765625,49.048828 70.934069,48.217273 69.878439,47.837891 68.746094,47.837891 Z M 78.712891,76.849609 C 78.72177,76.859799 78.73335,76.862736 78.742188,76.873047 L 78.689453,76.8125 C 78.700048,76.82391 78.702462,76.838137 78.712891,76.849609 Z M 78.333984,82.908203 C 78.326293,82.914612 78.324159,82.923303 78.316406,82.929688 L 78.361328,82.892578 C 78.352886,82.899965 78.342452,82.900899 78.333984,82.908203 Z"
         id="path6591"
         inkscape:original-d="M 74.367938,82.012032 Q 72.136688,82.012032 70.351688,80.896407 68.566688,79.736157 67.540313,77.772657 66.513938,75.809157 66.513938,73.354782 V 52.068657 Q 66.513938,51.086907 67.138688,50.462157 67.763438,49.837407 68.745188,49.837407 69.726938,49.837407 70.351688,50.462157 70.976438,51.086907 70.976438,52.068657 V 73.354782 Q 70.976438,75.139782 71.958188,76.344657 72.939938,77.549532 74.367938,77.549532 H 75.885188 Q 76.688438,77.549532 77.223938,78.174282 77.804063,78.799032 77.804063,79.780782 77.804063,80.762532 77.045438,81.387282 76.331438,82.012032 75.171188,82.012032 Z M 64.461188,62.332407 Q 63.524063,62.332407 62.943938,61.796907 62.363813,61.261407 62.363813,60.458157 62.363813,59.565657 62.943938,59.030157 63.524063,58.494657 64.461188,58.494657 H 74.769563 Q 75.706688,58.494657 76.286813,59.030157 76.866938,59.565657 76.866938,60.458157 76.866938,61.261407 76.286813,61.796907 75.706688,62.332407 74.769563,62.332407 Z"
         style="fill:#1e293b;fill-opacity:1" /><path
         d="M 94.449219,55.423828 C 91.730636,55.423828 89.267264,56.025127 87.078125,57.292969 84.914813,58.516203 83.204592,60.232296 81.958984,62.412109 L 81.957031,62.416016 81.953125,62.421875 C 80.714936,64.615238 80.132812,67.087877 80.132812,69.830078 80.132814,72.546264 80.718464,75.014719 81.947266,77.226562 L 81.957031,77.244141 81.964844,77.259766 C 83.212136,79.407881 84.916338,81.112082 87.064453,82.359375 L 87.074219,82.365234 87.085938,82.371094 C 89.274957,83.606831 91.733031,84.191406 94.449219,84.191406 97.165406,84.191406 99.62348,83.606831 101.8125,82.371094 L 101.82422,82.365234 101.83398,82.359375 C 103.98648,81.109541 105.68175,79.397024 106.90039,77.238281 L 106.90234,77.232422 106.90625,77.226562 C 108.13505,75.014719 108.7207,72.546266 108.7207,69.830078 108.7207,67.088505 108.12113,64.61372 106.85352,62.421875 105.63673,60.237203 103.93794,58.515799 101.77539,57.292969 99.590668,56.027662 97.142012,55.423828 94.449219,55.423828 Z M 101.77539,57.292969 C 101.77973,57.295479 101.78473,57.296312 101.78906,57.298828 L 101.76758,57.287109 C 101.77048,57.288748 101.77249,57.291328 101.77539,57.292969 Z M 106.85352,62.421875 C 106.85605,62.426434 106.86075,62.429031 106.86328,62.433594 L 106.8457,62.400391 C 106.84955,62.407024 106.84968,62.415236 106.85352,62.421875 Z M 87.078125,57.292969 C 87.081024,57.29133 87.083037,57.288747 87.085938,57.287109 L 87.064453,57.298828 C 87.06878,57.296316 87.073796,57.295476 87.078125,57.292969 Z M 94.449219,63.439453 C 95.668136,63.439453 96.682782,63.720997 97.525391,64.226562 98.384237,64.74187 99.052015,65.454381 99.541016,66.410156 L 99.554688,66.435547 99.568359,66.460938 C 100.06417,67.366343 100.34766,68.489196 100.34766,69.830078 100.34766,71.17096 100.06462,72.291042 99.568359,73.197266 L 99.558594,73.212891 99.550781,73.230469 C 99.06504,74.157792 98.394159,74.867411 97.525391,75.388672 96.68425,75.893357 95.669926,76.173828 94.449219,76.173828 93.228512,76.173828 92.214188,75.893357 91.373047,75.388672 90.498328,74.86384 89.804354,74.1418 89.287109,73.197266 88.790033,72.28956 88.505859,71.169277 88.505859,69.830078 88.505859,68.490879 88.790481,67.367825 89.287109,66.460938 L 89.292969,66.451172 89.296875,66.443359 C 89.817022,65.470911 90.508249,64.745441 91.373047,64.226562 92.215655,63.720998 93.230301,63.439453 94.449219,63.439453 Z"
         id="path6593"
         inkscape:original-d="M 94.449148,82.190532 Q 90.834523,82.190532 88.067773,80.628657 85.301023,79.022157 83.694523,76.255407 82.132648,73.444032 82.132648,69.829407 82.132648,66.170157 83.694523,63.403407 85.301023,60.592032 88.067773,59.030157 90.834523,57.423657 94.449148,57.423657 98.019148,57.423657 100.7859,59.030157 103.55265,60.592032 105.11452,63.403407 106.72102,66.170157 106.72102,69.829407 106.72102,73.444032 105.15915,76.255407 103.59727,79.022157 100.83052,80.628657 98.063773,82.190532 94.449148,82.190532 Z M 94.449148,78.174282 Q 96.769648,78.174282 98.554648,77.103282 100.33965,76.032282 101.3214,74.158032 102.34777,72.283782 102.34777,69.829407 102.34777,67.375032 101.3214,65.500782 100.33965,63.581907 98.554648,62.510907 96.769648,61.439907 94.449148,61.439907 92.128648,61.439907 90.343648,62.510907 88.558648,63.581907 87.532273,65.500782 86.505898,67.375032 86.505898,69.829407 86.505898,72.283782 87.532273,74.158032 88.558648,76.032282 90.343648,77.103282 92.128648,78.174282 94.449148,78.174282 Z"
         style="fill:#1e293b;fill-opacity:1" /><path
         d="M 114.8418,45.160156 C 113.70945,45.160156 112.65382,45.539536 111.82227,46.371094 110.99071,47.202651 110.61133,48.258279 110.61133,49.390625 V 73.755859 C 110.61133,75.600411 110.93647,77.317284 111.63672,78.865234 L 111.64062,78.873047 111.64453,78.882812 C 112.34668,80.397955 113.34526,81.641116 114.66992,82.576172 116.0554,83.554154 117.58738,84.011719 119.30469,84.011719 H 119.39453 C 120.61798,84.011719 121.77182,83.729808 122.76758,82.996094 123.83495,82.209612 124.42969,81.154899 124.42969,79.78125 124.42969,78.698992 124.10204,77.692907 123.33789,76.851562 122.5374,75.933518 121.58618,75.548828 120.41992,75.548828 H 119.47656 C 119.4618,75.527175 119.44597,75.501956 119.42773,75.470703 119.23491,75.140145 119.07422,74.606027 119.07422,73.755859 V 49.390625 C 119.07422,48.258279 118.69484,47.202651 117.86328,46.371094 117.02924,45.537053 115.97414,45.160156 114.8418,45.160156 Z M 123.33789,76.851562 C 123.34666,76.861616 123.35846,76.862863 123.36719,76.873047 L 123.31445,76.8125 C 123.32545,76.824343 123.32707,76.839652 123.33789,76.851562 Z"
         id="path6595"
         inkscape:original-d="M 119.30524,82.012032 Q 117.34174,82.012032 115.82449,80.941032 114.30724,79.870032 113.45936,78.040407 112.61149,76.166157 112.61149,73.756407 V 49.391157 Q 112.61149,48.409407 113.23624,47.784657 113.86099,47.159907 114.84274,47.159907 115.82449,47.159907 116.44924,47.784657 117.07399,48.409407 117.07399,49.391157 V 73.756407 Q 117.07399,75.407532 117.69874,76.478532 118.32349,77.549532 119.30524,77.549532 H 120.42086 Q 121.31336,77.549532 121.84886,78.174282 122.42899,78.799032 122.42899,79.780782 122.42899,80.762532 121.58111,81.387282 120.73324,82.012032 119.39449,82.012032 Z"
         style="fill:#1e293b;fill-opacity:1" /><path
         d="M 136.35156,55.423828 C 133.68293,55.423828 131.25659,56.030942 129.09766,57.302734 126.96186,58.530811 125.28432,60.251919 124.07227,62.433594 L 124.06836,62.4375 124.06641,62.443359 C 122.86512,64.633938 122.30273,67.096687 122.30273,69.830078 122.30273,72.55519 122.90849,75.0337 124.17383,77.248047 L 124.18359,77.263672 124.19336,77.28125 C 125.47733,79.432763 127.22948,81.130183 129.43555,82.371094 L 129.45117,82.380859 129.46875,82.390625 C 131.73487,83.610852 134.25318,84.191406 137.02148,84.191406 138.63743,84.191406 140.28066,83.890857 141.94336,83.326172 143.62231,82.765885 145.0973,82.01397 146.32227,81.044922 147.27971,80.30815 147.88352,79.323349 147.80859,77.974609 147.74167,76.77006 147.15874,75.841003 146.33398,75.113281 L 146.31836,75.099609 146.30078,75.085938 C 145.51687,74.422626 144.58236,74.14097 143.58594,74.179688 142.61583,74.188847 141.77597,74.48394 141.01367,75.042969 L 141.00586,75.050781 140.99805,75.056641 C 140.59726,75.35723 140.02018,75.66019 139.16602,75.972656 138.40892,76.231126 137.69668,76.353516 137.02148,76.353516 135.63771,76.353516 134.46911,76.047566 133.50195,75.498047 132.58174,74.975197 131.908,74.243874 131.36133,73.390625 H 145.41016 C 146.45429,73.390625 147.43033,73.071841 148.24023,72.324219 L 148.26953,72.298828 148.29688,72.269531 C 149.07091,71.495518 149.46289,70.505996 149.46289,69.427734 149.46289,66.823707 148.96897,64.452957 147.91992,62.347656 146.88776,60.185454 145.39553,58.512329 143.37891,57.285156 141.3399,56.014436 138.98481,55.423828 136.35156,55.423828 Z M 143.37891,57.285156 C 143.38314,57.287797 143.38834,57.288369 143.39258,57.291016 L 143.36914,57.277344 C 143.37283,57.279582 143.37522,57.282915 143.37891,57.285156 Z M 147.91992,62.347656 C 147.92308,62.35427 147.92849,62.358612 147.93164,62.365234 L 147.91406,62.330078 C 147.91681,62.335568 147.91718,62.342162 147.91992,62.347656 Z M 143.58594,74.179688 C 143.60073,74.179548 143.61014,74.166016 143.625,74.166016 L 143.51367,74.169922 C 143.53878,74.168527 143.5609,74.18066 143.58594,74.179688 Z M 146.32227,81.044922 C 146.31804,81.048175 146.31674,81.053397 146.3125,81.056641 L 146.3418,81.035156 C 146.33639,81.03945 146.32768,81.040637 146.32227,81.044922 Z M 129.09766,57.302734 C 129.10135,57.300609 129.10372,57.297044 129.10742,57.294922 L 129.08789,57.306641 C 129.09094,57.304838 129.0946,57.304534 129.09766,57.302734 Z M 136.35156,63.261719 C 137.51417,63.261719 138.39444,63.530241 139.04688,63.958984 139.71334,64.396944 140.22366,65.032803 140.63086,65.820312 H 131.5 C 131.92621,65.146159 132.36995,64.497435 133.03125,64.082031 133.87592,63.569495 134.97095,63.261719 136.35156,63.261719 Z"
         id="path6597"
         inkscape:original-d="M 137.0213,82.190532 Q 133.31742,82.190532 130.4168,80.628657 127.5608,79.022157 125.90967,76.255407 124.30317,73.444032 124.30317,69.829407 124.30317,66.170157 125.82042,63.403407 127.3823,60.592032 130.10442,59.030157 132.82655,57.423657 136.35192,57.423657 139.83267,57.423657 142.33167,58.985532 144.83067,60.502782 146.1248,63.224907 147.46355,65.902407 147.46355,69.427782 147.46355,70.275657 146.88342,70.855782 146.3033,71.391282 145.4108,71.391282 H 127.42692 V 67.821282 H 145.27692 L 143.4473,69.070782 Q 143.40267,66.839532 142.5548,65.099157 141.70692,63.314157 140.14505,62.287782 138.58317,61.261407 136.35192,61.261407 133.8083,61.261407 131.97867,62.377032 130.19367,63.492657 129.25655,65.456157 128.31942,67.375032 128.31942,69.829407 128.31942,72.283782 129.43505,74.202657 130.55067,76.121532 132.51417,77.237157 134.47767,78.352782 137.0213,78.352782 138.40467,78.352782 139.83267,77.861907 141.3053,77.326407 142.1978,76.657032 142.86717,76.166157 143.6258,76.166157 144.42905,76.121532 145.00917,76.612407 145.7678,77.281782 145.81242,78.085032 145.85705,78.888282 145.09842,79.468407 143.58117,80.673282 141.3053,81.431907 139.07405,82.190532 137.0213,82.190532 Z"
         style="fill:#1e293b;fill-opacity:1" /><path
         d="M 164.06445,55.378906 C 162.05678,55.378906 160.21851,55.867425 158.55859,56.826172 157.71465,56.005407 156.6634,55.646484 155.54102,55.646484 154.40867,55.646484 153.37199,56.016615 152.52344,56.808594 L 152.49805,56.832031 152.47461,56.857422 C 151.62125,57.71078 151.26562,58.78483 151.26562,59.921875 V 79.78125 C 151.26564,80.909084 151.63364,81.948154 152.42578,82.796875 L 152.47266,82.847656 152.52344,82.894531 C 153.37199,83.68651 154.40867,84.056641 155.54102,84.056641 156.68234,84.056641 157.75459,83.696577 158.60547,82.845703 L 158.63086,82.822266 158.6543,82.796875 C 159.44403,81.950728 159.81641,80.913596 159.81641,79.78125 V 67.197266 C 159.81641,65.986911 160.17531,65.112633 160.78711,64.464844 161.36218,63.85595 162.20279,63.484375 163.17188,63.484375 164.19493,63.484375 164.87916,63.787362 165.37305,64.28125 L 165.38477,64.292969 165.39648,64.304688 C 165.79982,64.695015 166.16992,65.481207 166.16992,67.017578 V 79.78125 C 166.16992,80.913596 166.54229,81.950728 167.33203,82.796875 L 167.37891,82.847656 167.42969,82.894531 C 168.27583,83.684268 169.31297,84.056641 170.44531,84.056641 171.58664,84.056641 172.6589,83.696564 173.50977,82.845703 L 173.53516,82.822266 173.55859,82.796875 C 174.34833,81.950728 174.7207,80.913596 174.7207,79.78125 V 67.197266 C 174.7207,65.979635 175.07653,65.096921 175.66016,64.455078 176.2349,63.853337 177.06858,63.484375 178.03125,63.484375 179.05432,63.484375 179.73853,63.787357 180.23242,64.28125 L 180.24414,64.292969 180.25586,64.304688 C 180.6592,64.69502 181.0293,65.481215 181.0293,67.017578 V 79.78125 C 181.0293,80.913596 181.40167,81.950728 182.19141,82.796875 L 182.23828,82.847656 182.28906,82.894531 C 183.13521,83.684268 184.17234,84.056641 185.30469,84.056641 186.446,84.056641 187.51772,83.699073 188.37109,82.845703 L 188.39648,82.822266 188.41992,82.796875 C 189.20966,81.950728 189.58203,80.913596 189.58203,79.78125 V 67.017578 C 189.58203,64.730389 189.16372,62.665839 188.24609,60.894531 187.36101,59.09882 186.11772,57.720518 184.41992,56.755859 182.76769,55.817089 180.92992,55.378906 178.92383,55.378906 176.68458,55.378906 174.63569,55.859023 172.78516,56.875 L 172.77734,56.878906 172.77148,56.884766 C 172.17645,57.217984 171.67353,57.61689 171.19531,58.03125 170.70945,57.558612 170.1858,57.112223 169.55859,56.755859 167.90715,55.817537 166.07055,55.378906 164.06445,55.378906 Z M 188.24609,60.894531 C 188.25043,60.903329 188.2574,60.909151 188.26172,60.917969 L 188.23828,60.873047 C 188.24174,60.879697 188.24264,60.887873 188.24609,60.894531 Z"
         id="path6599"
         inkscape:original-d="M 185.30556,82.056657 Q 184.32381,82.056657 183.65443,81.431907 183.02968,80.762532 183.02968,79.780782 V 67.018032 Q 183.02968,64.206657 181.64631,62.867907 180.26293,61.484532 178.03168,61.484532 175.71118,61.484532 174.19393,63.091032 172.72131,64.697532 172.72131,67.196532 H 169.01743 Q 169.01743,64.295907 170.26693,62.109282 171.51643,59.878032 173.74768,58.628532 176.02356,57.379032 178.92418,57.379032 181.46781,57.379032 183.43131,58.494657 185.39481,59.610282 186.46581,61.796907 187.58143,63.938907 187.58143,67.018032 V 79.780782 Q 187.58143,80.762532 186.95668,81.431907 186.33193,82.056657 185.30556,82.056657 Z M 155.54068,82.056657 Q 154.55893,82.056657 153.88956,81.431907 153.26481,80.762532 153.26481,79.780782 V 59.922657 Q 153.26481,58.896282 153.88956,58.271532 154.55893,57.646782 155.54068,57.646782 156.56706,57.646782 157.19181,58.271532 157.81656,58.896282 157.81656,59.922657 V 79.780782 Q 157.81656,80.762532 157.19181,81.431907 156.56706,82.056657 155.54068,82.056657 Z M 170.44543,82.056657 Q 169.46368,82.056657 168.79431,81.431907 168.16956,80.762532 168.16956,79.780782 V 67.018032 Q 168.16956,64.206657 166.78618,62.867907 165.40281,61.484532 163.17156,61.484532 160.85106,61.484532 159.33381,63.091032 157.81656,64.697532 157.81656,67.196532 H 155.00518 Q 155.00518,64.295907 156.16543,62.109282 157.32568,59.878032 159.37843,58.628532 161.43118,57.379032 164.06406,57.379032 166.60768,57.379032 168.57118,58.494657 170.53468,59.610282 171.60568,61.796907 172.72131,63.938907 172.72131,67.018032 V 79.780782 Q 172.72131,80.762532 172.09656,81.431907 171.47181,82.056657 170.44543,82.056657 Z"
         style="fill:#1e293b;fill-opacity:1" /><path
         d="M 193.62109,55.591797 C 193.09265,55.606275 192.57287,55.726714 192.07227,55.9375 191.05523,56.36572 190.27093,57.101844 189.81445,58.128906 L 189.80469,58.154297 189.79297,58.179688 C 189.30188,59.372329 189.45256,60.42724 190.00586,61.478516 L 199.58203,79.667969 195.54102,88.798828 C 194.47936,91.081392 195.32031,93.240234 197.59766,94.275391 L 197.61719,94.285156 197.63867,94.292969 C 198.19357,94.530781 198.84927,94.722656 199.49609,94.722656 201.25902,94.722656 202.51708,93.570453 203.10156,92.060547 L 203.06445,92.150391 216.71289,61.464844 C 217.79635,59.081239 216.95234,56.996099 214.54688,55.980469 213.58327,55.577097 212.50191,55.402638 211.40039,55.822266 210.29981,56.241537 209.60752,57.093549 209.1582,58.037109 L 209.14648,58.0625 203.67773,70.419922 197.40039,57.953125 197.41992,57.996094 C 196.96417,57.033952 196.22583,56.268113 195.16406,55.876953 194.65183,55.673909 194.13267,55.57778 193.62109,55.591797 Z M 195.16406,55.876953 C 195.18094,55.883645 195.19798,55.879773 195.21484,55.886719 L 195.11914,55.849609 C 195.13676,55.855827 195.14662,55.870529 195.16406,55.876953 Z"
         id="path6601"
         inkscape:original-d="M 199.4963,92.722032 Q 199.05005,92.722032 198.4253,92.454282 196.4618,91.561782 197.3543,89.642907 L 210.96493,58.896282 Q 211.85743,57.022032 213.7763,57.825282 215.78443,58.673157 214.89193,60.636657 L 201.23668,91.338657 Q 200.70118,92.722032 199.4963,92.722032 Z M 204.76205,81.030282 Q 203.91418,81.387282 203.15555,81.119532 202.44155,80.807157 201.9953,79.959282 L 191.77618,60.547407 Q 191.32993,59.699532 191.6423,58.940907 191.9993,58.137657 192.84718,57.780657 193.69505,57.423657 194.45368,57.736032 195.2123,58.003782 195.61393,58.851657 L 205.3868,78.263532 Q 205.83305,79.111407 205.69918,79.914657 205.60993,80.673282 204.76205,81.030282 Z"
         style="fill:#1e293b;fill-opacity:1" /><path
         d="M 218.77344,45.205078 C 217.5572,45.205078 216.61312,45.599772 215.75391,46.458984 214.93598,47.276913 214.49805,48.318696 214.49805,49.480469 V 49.544922 L 214.9043,55.800781 C 214.96321,56.802294 215.3575,57.681726 216.06641,58.390625 216.83622,59.160438 217.67415,59.513672 218.77344,59.513672 219.81337,59.513672 220.75097,59.122078 221.48242,58.390625 222.25547,57.617582 222.60352,56.776459 222.60352,55.683594 L 222.59961,55.8125 223.00586,49.544922 V 49.480469 C 223.00586,48.318696 222.56793,47.276913 221.75,46.458984 220.94778,45.656767 219.92739,45.205078 218.77344,45.205078 Z"
         id="path6603"
         inkscape:original-d="M 218.77429,57.512907 Q 218.01566,57.512907 217.48016,56.977407 216.94466,56.441907 216.90004,55.683282 L 216.49841,49.480407 Q 216.49841,48.543282 217.16779,47.873907 217.83716,47.204532 218.77429,47.204532 219.66679,47.204532 220.33616,47.873907 221.00554,48.543282 221.00554,49.480407 L 220.60391,55.683282 Q 220.60391,56.441907 220.06841,56.977407 219.53291,57.512907 218.77429,57.512907 Z"
         style="fill:#1e293b;fill-opacity:1" /><path
         d="M 232.02734,55.423828 C 230.28767,55.423828 228.61026,55.715756 226.99219,56.298828 225.30317,56.87711 223.87253,57.790961 222.73242,59.078125 221.45826,60.484224 220.87891,62.20669 220.87891,64.162109 220.87891,66.53574 221.77421,68.441444 223.56055,70.029297 L 223.56836,70.037109 223.57617,70.044922 C 225.31377,71.555873 227.88525,72.545444 231.05859,73.173828 L 231.07617,73.177734 231.09375,73.181641 C 233.34612,73.585912 234.41402,73.957204 235.01367,74.412109 L 235.02734,74.421875 235.03906,74.431641 C 235.48272,74.756993 235.52082,75.035593 235.51953,75.074219 235.51796,75.121386 235.47797,75.354477 235.04297,75.621094 L 235.0293,75.628906 235.01758,75.636719 C 234.55531,75.929486 233.69667,76.173828 232.16211,76.173828 231.04122,76.173828 230.06509,75.975398 229.21484,75.621094 228.28401,75.187609 227.74723,74.8024 227.49414,74.519531 L 227.48047,74.503906 227.4668,74.488281 C 226.73518,73.704408 225.81762,73.247991 224.75391,73.125 223.49207,72.941283 222.42492,73.38353 221.52148,74.099609 220.60904,74.802203 220.0365,75.765886 219.87305,76.910156 L 219.86719,76.953125 219.86328,76.994141 C 219.73568,78.270152 220.13616,79.271648 220.97461,80.166016 L 220.99609,80.189453 221.01953,80.212891 C 222.25696,81.450306 223.89783,82.402806 225.83984,83.126953 L 225.85938,83.134766 225.87891,83.142578 C 227.89604,83.848574 230.05397,84.191406 232.33984,84.191406 234.64544,84.191406 236.7254,83.826956 238.45117,83.019531 H 238.45312 C 240.15562,82.236561 241.52443,81.148442 242.48242,79.679688 243.46106,78.225236 243.93555,76.642812 243.93555,74.871094 243.93555,73.34842 243.56733,71.940884 242.78125,70.693359 241.97698,69.387163 240.72787,68.366339 239.20703,67.570312 237.69517,66.763399 235.73316,66.148573 233.4082,65.683594 231.86186,65.368598 230.79648,65.074334 230.10938,64.806641 229.56789,64.568049 229.37397,64.400238 229.34375,64.373047 229.29774,64.2715 229.25391,64.171303 229.25391,64.027344 229.25391,64.027344 229.30129,63.954913 229.47266,63.863281 230.06307,63.579205 230.86078,63.394531 231.93945,63.394531 232.91617,63.394531 233.69845,63.509796 234.33398,63.707031 234.86145,63.870725 235.40412,64.185846 235.95312,64.712891 L 235.96289,64.722656 235.97266,64.732422 C 236.72599,65.435535 237.63416,65.85749 238.63281,66.039062 239.73901,66.240189 240.84146,66.07982 241.81836,65.408203 L 241.85352,65.384766 241.88477,65.359375 C 242.79312,64.678107 243.3656,63.833767 243.43945,62.578125 243.50281,61.437676 243.08266,60.468085 242.38672,59.662109 241.25107,58.273114 239.78643,57.242482 238.01172,56.511719 236.21123,55.770339 234.20488,55.423828 232.02734,55.423828 Z M 242.38672,59.662109 C 242.39525,59.672543 242.40752,59.678978 242.41602,59.689453 L 242.36914,59.632812 C 242.37683,59.641596 242.3791,59.653286 242.38672,59.662109 Z M 242.78125,70.693359 C 242.78364,70.697239 242.78863,70.69924 242.79102,70.703125 L 242.77539,70.677734 C 242.77842,70.682523 242.77823,70.688566 242.78125,70.693359 Z M 242.48242,79.679688 C 242.47905,79.6847 242.47799,79.690303 242.47461,79.695312 L 242.49609,79.664062 C 242.49227,79.669951 242.48625,79.673812 242.48242,79.679688 Z M 221.52148,74.099609 C 221.52567,74.096384 221.52705,74.091105 221.53125,74.087891 L 221.49609,74.113281 C 221.50374,74.107163 221.51381,74.105689 221.52148,74.099609 Z M 224.75391,73.125 C 224.77008,73.127354 224.78259,73.11853 224.79883,73.121094 L 224.68555,73.105469 C 224.7102,73.107934 224.72942,73.122169 224.75391,73.125 Z M 222.73242,59.078125 C 222.73508,59.075188 222.73561,59.071294 222.73828,59.068359 L 222.71875,59.089844 C 222.72279,59.08527 222.72838,59.082689 222.73242,59.078125 Z M 226.99219,56.298828 C 226.99873,56.296589 227.00322,56.291292 227.00977,56.289062 L 226.97461,56.300781 C 226.9802,56.29876 226.9866,56.300842 226.99219,56.298828 Z"
         id="path6605"
         inkscape:original-d="M 232.34031,82.190532 Q 229.21656,82.190532 226.53906,81.253407 223.90619,80.271657 222.43356,78.799032 221.76419,78.085032 221.85344,77.192532 221.98731,76.255407 222.74594,75.675282 223.63844,74.961282 224.48631,75.095157 225.37881,75.184407 226.00356,75.853782 226.76219,76.701657 228.41331,77.460282 230.10906,78.174282 232.16181,78.174282 234.75006,78.174282 236.08881,77.326407 237.47219,76.478532 237.51681,75.139782 237.56144,73.801032 236.22269,72.819282 234.92856,71.837532 231.44781,71.212782 226.94069,70.320282 224.88794,68.535282 222.87981,66.750282 222.87981,64.162032 222.87981,61.886157 224.21856,60.413532 225.55731,58.896282 227.65469,58.182282 229.75206,57.423657 232.02794,57.423657 234.97319,57.423657 237.24906,58.360782 239.52494,59.297907 240.86369,60.949032 241.48844,61.663032 241.44381,62.466282 241.39919,63.224907 240.68519,63.760407 239.97119,64.251282 238.98944,64.072782 238.00769,63.894282 237.33831,63.269532 236.22269,62.198532 234.92856,61.796907 233.63444,61.395282 231.93869,61.395282 229.97519,61.395282 228.59181,62.064657 227.25306,62.734032 227.25306,64.028157 227.25306,64.831407 227.65469,65.500782 228.10094,66.125532 229.35044,66.661032 230.59994,67.151907 233.00969,67.642782 236.35656,68.312157 238.27544,69.338532 240.23894,70.364907 241.08681,71.748282 241.93469,73.087032 241.93469,74.872032 241.93469,76.924782 240.81906,78.575907 239.74806,80.227032 237.60606,81.208782 235.50869,82.190532 232.34031,82.190532 Z"
         style="fill:#1e293b;fill-opacity:1" /><path
         d="M 263.5332,45.160156 C 262.32124,45.160156 261.36582,45.538218 260.49609,46.396484 259.57421,47.270601 259.21289,48.264206 259.21289,49.480469 V 79.691406 C 259.21289,80.915476 259.59207,81.879177 260.46875,82.755859 261.34543,83.632537 262.30913,84.011719 263.5332,84.011719 H 283.70312 C 284.81119,84.011719 285.84842,83.702839 286.7168,82.896484 L 286.74414,82.871094 286.76953,82.845703 C 287.60357,82.011663 287.97852,80.954048 287.97852,79.826172 287.97852,78.650401 287.62817,77.690029 286.7168,76.84375 285.84842,76.037396 284.81119,75.728516 283.70312,75.728516 H 267.85352 V 68.572266 H 278.66016 C 279.76821,68.572266 280.80543,68.263394 281.67383,67.457031 L 281.70117,67.431641 281.72656,67.40625 C 282.54129,66.591524 282.9375,65.555038 282.9375,64.429688 282.9375,63.262072 282.58122,62.315191 281.69531,61.478516 280.84652,60.645011 279.7891,60.287109 278.66016,60.287109 H 267.85352 V 53.443359 H 283.70312 C 284.81119,53.443359 285.84842,53.134479 286.7168,52.328125 287.62817,51.481846 287.97852,50.521474 287.97852,49.345703 287.97852,48.178359 287.64689,47.21007 286.73828,46.351562 285.8895,45.51807 284.83208,45.160156 283.70312,45.160156 Z M 286.73828,46.351562 C 286.74758,46.360694 286.76028,46.361846 286.76953,46.371094 L 286.7168,46.320312 C 286.72717,46.32994 286.72806,46.341906 286.73828,46.351562 Z M 281.69531,61.478516 C 281.70461,61.487647 281.71731,61.488799 281.72656,61.498047 L 281.67383,61.447266 C 281.6841,61.456807 281.68518,61.468945 281.69531,61.478516 Z M 260.49609,46.396484 C 260.50579,46.38729 260.50776,46.376355 260.51758,46.367188 L 260.46875,46.416016 C 260.47742,46.407342 260.4874,46.405061 260.49609,46.396484 Z"
         id="path6607"
         inkscape:original-d="M 263.53311,82.012032 Q 262.55136,82.012032 261.88199,81.342657 261.21261,80.673282 261.21261,79.691532 V 49.480407 Q 261.21261,48.454032 261.88199,47.829282 262.55136,47.159907 263.53311,47.159907 H 283.70361 Q 284.72999,47.159907 285.35474,47.784657 285.97949,48.364782 285.97949,49.346532 285.97949,50.283657 285.35474,50.863782 284.72999,51.443907 283.70361,51.443907 H 265.85361 V 62.287782 H 278.66099 Q 279.68736,62.287782 280.31211,62.912532 280.93686,63.492657 280.93686,64.429782 280.93686,65.366907 280.31211,65.991657 279.68736,66.571782 278.66099,66.571782 H 265.85361 V 77.728032 H 283.70361 Q 284.72999,77.728032 285.35474,78.308157 285.97949,78.888282 285.97949,79.825407 285.97949,80.807157 285.35474,81.431907 284.72999,82.012032 283.70361,82.012032 Z"
         style="fill:#1e293b;fill-opacity:1" /><path
         d="M 304.27539,55.423828 C 301.62242,55.423828 299.18958,56.054569 297.00977,57.353516 294.86113,58.604478 293.16025,60.326011 291.91797,62.5 290.66095,64.69978 290.03763,67.139319 290.00391,69.804688 V 69.818359 90.177734 C 290.00391,91.31008 290.38082,92.365191 291.21484,93.199219 292.09154,94.075931 293.05522,94.455078 294.2793,94.455078 295.44107,94.455078 296.52996,94.048085 297.36328,93.171875 298.18279,92.339235 298.55469,91.294674 298.55469,90.177734 V 82.359375 C 298.84136,82.532094 299.09506,82.746604 299.39648,82.900391 L 299.41797,82.912109 299.43945,82.921875 C 301.21975,83.776417 303.12356,84.191406 305.16797,84.191406 307.68964,84.191406 310.00398,83.564543 312.06836,82.283203 L 312.07812,82.277344 312.08984,82.269531 C 314.11191,80.979593 315.69252,79.25581 316.83398,77.115234 L 316.83594,77.111328 C 318.02212,74.911797 318.5918,72.483827 318.5918,69.830078 318.5918,67.153778 317.96427,64.69821 316.67188,62.492188 315.43003,60.3223 313.7317,58.602806 311.58594,57.353516 309.4017,56.051944 306.95385,55.423828 304.27539,55.423828 Z M 316.67188,62.492188 C 316.67353,62.495087 316.67608,62.497099 316.67773,62.5 L 316.66602,62.478516 C 316.66856,62.482853 316.66933,62.487848 316.67188,62.492188 Z M 297.36328,93.171875 C 297.35526,93.180028 297.35381,93.191107 297.3457,93.199219 L 297.39453,93.150391 C 297.38541,93.160162 297.37246,93.162219 297.36328,93.171875 Z M 304.27539,63.439453 C 305.44578,63.439453 306.42973,63.721461 307.27539,64.25 L 307.29102,64.259766 307.30664,64.269531 C 308.17085,64.788056 308.86499,65.516522 309.38477,66.488281 L 309.39844,66.513672 309.41211,66.537109 C 309.9309,67.444989 310.21875,68.537784 310.21875,69.830078 310.21875,71.086693 309.93516,72.184036 309.40234,73.138672 L 309.39844,73.146484 309.39453,73.152344 C 308.87811,74.095375 308.17255,74.836314 307.28906,75.392578 306.44424,75.895782 305.45314,76.173828 304.27539,76.173828 303.13828,76.173828 302.14183,75.898483 301.25391,75.384766 300.37897,74.831714 299.68083,74.096451 299.16602,73.160156 298.65531,72.201931 298.37695,71.094884 298.37695,69.830078 298.37695,68.526135 298.65809,67.419107 299.1582,66.505859 L 299.16406,66.496094 299.16797,66.488281 C 299.68854,65.515034 300.38081,64.787528 301.24414,64.269531 L 301.25,64.265625 301.25586,64.261719 C 302.14764,63.717947 303.14168,63.439453 304.27539,63.439453 Z"
         id="path6609"
         inkscape:original-d="M 294.27977,92.454282 Q 293.29802,92.454282 292.62865,91.784907 292.0039,91.160157 292.0039,90.178407 V 69.829407 Q 292.04852,66.304032 293.65502,63.492657 295.26152,60.681282 298.02827,59.074782 300.79502,57.423657 304.27577,57.423657 307.80115,57.423657 310.5679,59.074782 313.33465,60.681282 314.94115,63.492657 316.59227,66.304032 316.59227,69.829407 316.59227,73.354782 315.07502,76.166157 313.6024,78.932907 311.01415,80.584032 308.4259,82.190532 305.16827,82.190532 302.5354,82.190532 300.30415,81.119532 298.11752,80.003907 296.55565,78.129657 V 90.178407 Q 296.55565,91.160157 295.9309,91.784907 295.30615,92.454282 294.27977,92.454282 Z M 304.27577,78.174282 Q 306.55165,78.174282 308.33665,77.103282 310.12165,75.987657 311.14802,74.113407 312.21902,72.194532 312.21902,69.829407 312.21902,67.419657 311.14802,65.545407 310.12165,63.626532 308.33665,62.555532 306.55165,61.439907 304.27577,61.439907 302.04452,61.439907 300.2149,62.555532 298.4299,63.626532 297.40352,65.545407 296.37715,67.419657 296.37715,69.829407 296.37715,72.194532 297.40352,74.113407 298.4299,75.987657 300.2149,77.103282 302.04452,78.174282 304.27577,78.174282 Z"
         style="fill:#1e293b;fill-opacity:1" /><path
         d="M 326.09766,45.740234 C 324.7387,45.740234 323.53909,46.265603 322.58594,47.21875 321.6018,48.20289 321.15234,49.296323 321.15234,50.685547 321.15234,52.016173 321.63687,53.198145 322.55078,54.160156 L 322.58594,54.197266 322.62305,54.232422 C 323.56449,55.126796 324.72163,55.595019 326.01758,55.615234 324.91798,55.633182 323.9076,55.991338 323.08008,56.763672 L 323.05469,56.787109 323.03125,56.8125 C 322.17539,57.668358 321.82227,58.741883 321.82227,59.878906 V 79.736328 C 321.82227,80.864182 322.19028,81.903232 322.98242,82.751953 L 323.0293,82.802734 323.08008,82.849609 C 323.92861,83.641557 324.96531,84.011719 326.09766,84.011719 327.23897,84.011719 328.31122,83.651668 329.16211,82.800781 L 329.1875,82.777344 329.21094,82.751953 C 330.00067,81.905806 330.37305,80.868674 330.37305,79.736328 V 59.878906 C 330.37305,58.737586 330.01547,57.665862 329.16211,56.8125 328.33246,55.982855 327.28907,55.632835 326.17969,55.615234 327.52612,55.596045 328.60174,55.159975 329.56445,54.197266 330.51761,53.244114 331.04297,52.044502 331.04297,50.685547 331.04297,49.28361 330.55483,48.187806 329.55859,47.224609 328.59539,46.228373 327.49959,45.740234 326.09766,45.740234 Z M 329.55859,47.224609 C 329.57149,47.237943 329.58677,47.24234 329.59961,47.255859 L 329.52734,47.183594 C 329.54086,47.196437 329.54526,47.211718 329.55859,47.224609 Z"
         id="path6611"
         inkscape:original-d="M 326.09738,82.012032 Q 325.11563,82.012032 324.44625,81.387282 323.8215,80.717907 323.8215,79.736157 V 59.878032 Q 323.8215,58.851657 324.44625,58.226907 325.11563,57.602157 326.09738,57.602157 327.12375,57.602157 327.7485,58.226907 328.37325,58.851657 328.37325,59.878032 V 79.736157 Q 328.37325,80.717907 327.7485,81.387282 327.12375,82.012032 326.09738,82.012032 Z M 326.09738,53.630532 Q 324.8925,53.630532 324,52.782657 323.15213,51.890157 323.15213,50.685282 323.15213,49.480407 324,48.632532 324.8925,47.740032 326.09738,47.740032 327.30225,47.740032 328.15013,48.632532 329.04263,49.480407 329.04263,50.685282 329.04263,51.890157 328.15013,52.782657 327.30225,53.630532 326.09738,53.630532 Z"
         style="fill:#1e293b;fill-opacity:1" /><path
         d="M 347.69531,55.423828 C 345.02668,55.423828 342.60172,56.031278 340.44336,57.302734 338.30813,58.530483 336.62862,60.250923 335.41602,62.433594 334.18723,64.645428 333.60156,67.113885 333.60156,69.830078 333.60156,72.494529 334.19196,74.933395 335.41602,77.136719 L 335.42578,77.154297 335.43359,77.169922 C 336.67835,79.313663 338.37401,81.025054 340.51172,82.300781 L 340.5293,82.310547 340.54492,82.320312 C 342.75553,83.58352 345.22062,84.191406 347.91992,84.191406 351.59837,84.191406 354.76215,83.041078 357.31445,80.666016 L 357.33984,80.640625 357.36523,80.615234 C 358.18263,79.797842 358.61823,78.841243 358.47266,77.587891 358.34157,76.429917 357.74825,75.542366 356.91797,74.855469 356.08865,74.157859 355.20595,73.902195 354.14648,74.007812 353.15833,74.075917 352.29806,74.466807 351.5625,75.064453 351.10715,75.437021 350.59508,75.714949 350.03125,75.90625 349.49239,76.06982 348.80407,76.173828 347.91992,76.173828 346.67034,76.173828 345.64823,75.88796 344.81641,75.392578 343.93847,74.839811 343.24008,74.100637 342.72461,73.166016 342.24935,72.25178 341.97656,71.141488 341.97656,69.830078 341.97656,68.398641 342.2525,67.248604 342.72852,66.339844 343.21724,65.406827 343.87155,64.720186 344.69531,64.234375 L 344.71094,64.224609 344.72852,64.214844 C 345.53789,63.716766 346.51259,63.439453 347.69531,63.439453 349.27361,63.439453 350.65325,64.035357 351.68555,65.130859 L 351.70508,65.152344 351.72656,65.173828 C 352.3732,65.820466 353.1432,66.294957 354.06445,66.511719 L 354.12109,66.523438 354.17578,66.533203 C 355.26544,66.7255 356.16731,66.522513 357.06836,65.878906 L 357.07227,65.876953 357.07812,65.873047 C 357.91034,65.272005 358.58158,64.452119 358.83594,63.371094 359.14465,62.059049 358.72876,61.015314 357.95312,60.128906 356.62568,58.597242 355.09161,57.419093 353.3457,56.632812 351.60386,55.818713 349.71066,55.423828 347.69531,55.423828 Z M 353.3457,56.632812 C 353.35189,56.635702 353.35906,56.635772 353.36523,56.638672 L 353.33398,56.625 C 353.33827,56.626926 353.34142,56.630882 353.3457,56.632812 Z M 354.14648,74.007812 C 354.16074,74.00683 354.16929,73.993029 354.18359,73.992188 L 354.06641,74.001953 C 354.09536,73.998546 354.1178,74.010672 354.14648,74.007812 Z M 356.91797,74.855469 C 356.92162,74.858539 356.92604,74.858242 356.92969,74.861328 L 356.91016,74.845703 C 356.91345,74.848415 356.91468,74.852751 356.91797,74.855469 Z M 340.44336,57.302734 C 340.44706,57.300609 340.44943,57.297044 340.45312,57.294922 L 340.43359,57.306641 C 340.43665,57.304839 340.4403,57.304534 340.44336,57.302734 Z"
         id="path6613"
         inkscape:original-d="M 347.919,82.190532 Q 344.349,82.190532 341.53762,80.584032 338.77087,78.932907 337.16437,76.166157 335.6025,73.354782 335.6025,69.829407 335.6025,66.214782 337.16437,63.403407 338.72625,60.592032 341.44837,59.030157 344.1705,57.423657 347.69587,57.423657 350.32875,57.423657 352.51537,58.450032 354.702,59.431782 356.44237,61.439907 357.06712,62.153907 356.88862,62.912532 356.71012,63.671157 355.90687,64.251282 355.28212,64.697532 354.5235,64.563657 353.76487,64.385157 353.14012,63.760407 350.9535,61.439907 347.69587,61.439907 345.42,61.439907 343.67962,62.510907 341.93925,63.537282 340.9575,65.411532 339.97575,67.285782 339.97575,69.829407 339.97575,72.239157 340.9575,74.113407 341.98387,75.987657 343.76887,77.103282 345.55387,78.174282 347.919,78.174282 349.48087,78.174282 350.64112,77.817282 351.846,77.415657 352.82775,76.612407 353.54175,76.032282 354.30037,75.987657 355.059,75.898407 355.63912,76.389282 356.39775,77.014032 356.487,77.817282 356.57625,78.575907 355.9515,79.200657 352.7385,82.190532 347.919,82.190532 Z"
         style="fill:#1e293b;fill-opacity:1" /><path
         d="M 362.16992,55.591797 C 361.64148,55.606277 361.12172,55.726712 360.62109,55.9375 359.60409,56.365721 358.81976,57.101823 358.36328,58.128906 L 358.35352,58.154297 358.3418,58.179688 C 357.85067,59.372369 358.00143,60.427335 358.55469,61.478516 L 368.13086,79.669922 364.08984,88.798828 C 363.02818,91.081404 363.86915,93.240237 366.14648,94.275391 L 366.16602,94.285156 366.1875,94.292969 C 366.7424,94.530781 367.3981,94.722656 368.04492,94.722656 369.80785,94.722656 371.06591,93.570468 371.65039,92.060547 L 371.61328,92.150391 385.26172,61.464844 C 386.34518,59.081239 385.50118,56.996103 383.0957,55.980469 382.13211,55.577106 381.05073,55.402641 379.94922,55.822266 378.84864,56.241537 378.15635,57.093549 377.70703,58.037109 L 377.69531,58.0625 372.22656,70.419922 365.94922,57.953125 365.96875,57.996094 C 365.51301,57.033971 364.77468,56.268112 363.71289,55.876953 363.20066,55.673904 362.68151,55.577778 362.16992,55.591797 Z M 363.71289,55.876953 C 363.72977,55.883645 363.7468,55.879773 363.76367,55.886719 L 363.66797,55.849609 C 363.68559,55.855827 363.69545,55.870529 363.71289,55.876953 Z"
         id="path6615"
         inkscape:original-d="M 368.04486,92.722032 Q 367.59861,92.722032 366.97386,92.454282 365.01036,91.561782 365.90286,89.642907 L 379.51348,58.896282 Q 380.40598,57.022032 382.32486,57.825282 384.33298,58.673157 383.44048,60.636657 L 369.78523,91.338657 Q 369.24973,92.722032 368.04486,92.722032 Z M 373.31061,81.030282 Q 372.46273,81.387282 371.70411,81.119532 370.99011,80.807157 370.54386,79.959282 L 360.32473,60.547407 Q 359.87848,59.699532 360.19086,58.940907 360.54786,58.137657 361.39573,57.780657 362.24361,57.423657 363.00223,57.736032 363.76086,58.003782 364.16248,58.851657 L 373.93536,78.263532 Q 374.38161,79.111407 374.24773,79.914657 374.15848,80.673282 373.31061,81.030282 Z"
         style="fill:#1e293b;fill-opacity:1" /><path
         d="M 397.67578,55.423828 C 395.00714,55.423828 392.58082,56.030947 390.42188,57.302734 388.2861,58.530809 386.60853,60.251908 385.39648,62.433594 384.16768,64.645437 383.58203,67.113891 383.58203,69.830078 383.58203,72.494523 384.17241,74.933387 385.39648,77.136719 L 385.40625,77.154297 385.41406,77.169922 C 386.65882,79.313663 388.35448,81.025054 390.49219,82.300781 L 390.50977,82.310547 390.52539,82.320312 C 392.73545,83.583205 395.19914,84.191406 397.89844,84.191406 401.57688,84.191406 404.74212,83.041542 407.29492,80.666016 L 407.32031,80.640625 407.3457,80.615234 C 408.1631,79.797842 408.59869,78.841243 408.45312,77.587891 408.32204,76.42989 407.72869,75.542355 406.89844,74.855469 406.06914,74.157894 405.18642,73.902197 404.12695,74.007812 403.1388,74.075917 402.27851,74.466807 401.54297,75.064453 401.08759,75.437036 400.57554,75.714951 400.01172,75.90625 399.47363,76.06957 398.78258,76.173828 397.89844,76.173828 396.64884,76.173828 395.62675,75.887963 394.79492,75.392578 393.91788,74.840363 393.22132,74.102074 392.70508,73.166016 392.22901,72.250268 391.95508,71.13978 391.95508,69.830078 391.95508,68.400222 392.23219,67.250095 392.70898,66.339844 393.19771,65.406827 393.85201,64.720186 394.67578,64.234375 L 394.69141,64.224609 394.70898,64.214844 C 395.51837,63.716763 396.49305,63.439453 397.67578,63.439453 399.25407,63.439453 400.63099,64.03454 401.66406,65.130859 L 401.68359,65.152344 401.70508,65.173828 C 402.35406,65.822811 403.12485,66.295236 404.04492,66.511719 L 404.10156,66.523438 404.15625,66.533203 C 405.24591,66.7255 406.14778,66.522513 407.04883,65.878906 L 407.05273,65.876953 407.05859,65.873047 C 407.89081,65.272005 408.56205,64.452119 408.81641,63.371094 409.12513,62.059019 408.70921,61.015315 407.93359,60.128906 406.60615,58.597242 405.07207,57.419093 403.32617,56.632812 401.58433,55.818712 399.69112,55.423828 397.67578,55.423828 Z M 403.32617,56.632812 C 403.33235,56.635702 403.33952,56.635772 403.3457,56.638672 L 403.31445,56.625 C 403.31874,56.626926 403.32189,56.630882 403.32617,56.632812 Z M 404.12695,74.007812 C 404.1412,74.00683 404.14976,73.993029 404.16406,73.992188 L 404.04688,74.001953 C 404.07583,73.998546 404.09827,74.010672 404.12695,74.007812 Z M 406.89844,74.855469 C 406.90209,74.858539 406.90651,74.858242 406.91016,74.861328 L 406.89062,74.845703 C 406.89392,74.848415 406.89515,74.852751 406.89844,74.855469 Z M 390.42188,57.302734 C 390.42557,57.300609 390.42794,57.297044 390.43164,57.294922 L 390.41211,57.306641 C 390.41516,57.304838 390.41882,57.304534 390.42188,57.302734 Z"
         id="path6617"
         inkscape:original-d="M 397.89895,82.190532 Q 394.32895,82.190532 391.51757,80.584032 388.75082,78.932907 387.14432,76.166157 385.58245,73.354782 385.58245,69.829407 385.58245,66.214782 387.14432,63.403407 388.7062,60.592032 391.42832,59.030157 394.15045,57.423657 397.67582,57.423657 400.3087,57.423657 402.49532,58.450032 404.68195,59.431782 406.42232,61.439907 407.04707,62.153907 406.86857,62.912532 406.69007,63.671157 405.88682,64.251282 405.26207,64.697532 404.50345,64.563657 403.74482,64.385157 403.12007,63.760407 400.93345,61.439907 397.67582,61.439907 395.39995,61.439907 393.65957,62.510907 391.9192,63.537282 390.93745,65.411532 389.9557,67.285782 389.9557,69.829407 389.9557,72.239157 390.93745,74.113407 391.96382,75.987657 393.74882,77.103282 395.53382,78.174282 397.89895,78.174282 399.46082,78.174282 400.62107,77.817282 401.82595,77.415657 402.8077,76.612407 403.5217,76.032282 404.28032,75.987657 405.03895,75.898407 405.61907,76.389282 406.3777,77.014032 406.46695,77.817282 406.5562,78.575907 405.93145,79.200657 402.71845,82.190532 397.89895,82.190532 Z"
         style="fill:#1e293b;fill-opacity:1" /><path
         d="M 414.99023,45.160156 C 413.85789,45.160156 412.80225,45.539548 411.9707,46.371094 411.13915,47.202651 410.75977,48.258279 410.75977,49.390625 V 73.755859 C 410.75977,75.600411 411.08491,77.317284 411.78516,78.865234 L 411.78906,78.873047 411.79297,78.882812 C 412.49512,80.397955 413.4937,81.641116 414.81836,82.576172 416.20383,83.554154 417.73583,84.011719 419.45312,84.011719 H 419.54297 C 420.76642,84.011719 421.92019,83.728424 422.91406,82.996094 423.98144,82.209603 424.57617,81.154874 424.57617,79.78125 424.57617,78.699015 424.24856,77.692924 423.48438,76.851562 422.68672,75.936803 421.7346,75.548828 420.56836,75.548828 H 419.62109 C 419.60644,75.527346 419.59231,75.501723 419.57422,75.470703 419.38139,75.140145 419.2207,74.606027 419.2207,73.755859 V 49.390625 C 419.2207,48.262771 418.84577,47.205146 418.01172,46.371094 417.17766,45.53704 416.12258,45.160156 414.99023,45.160156 Z M 423.48438,76.851562 C 423.49312,76.861597 423.50496,76.862883 423.51367,76.873047 L 423.46094,76.8125 C 423.47193,76.824343 423.47356,76.839652 423.48438,76.851562 Z"
         id="path6619"
         inkscape:original-d="M 419.45281,82.012032 Q 417.48931,82.012032 415.97206,80.941032 414.45481,79.870032 413.60693,78.040407 412.75906,76.166157 412.75906,73.756407 V 49.391157 Q 412.75906,48.409407 413.38381,47.784657 414.00856,47.159907 414.99031,47.159907 415.97206,47.159907 416.59681,47.784657 417.22156,48.409407 417.22156,49.391157 V 73.756407 Q 417.22156,75.407532 417.84631,76.478532 418.47106,77.549532 419.45281,77.549532 H 420.56843 Q 421.46093,77.549532 421.99643,78.174282 422.57656,78.799032 422.57656,79.780782 422.57656,80.762532 421.72868,81.387282 420.88081,82.012032 419.54206,82.012032 Z"
         style="fill:#1e293b;fill-opacity:1" /><path
         d="M 436.5,55.423828 C 433.83136,55.423828 431.40503,56.030947 429.24609,57.302734 427.11031,58.530809 425.43275,60.251908 424.2207,62.433594 L 424.2168,62.4375 424.21484,62.443359 C 423.01356,64.633938 422.45117,67.096687 422.45117,69.830078 422.45117,72.554037 423.05442,75.032731 424.32031,77.248047 L 424.33008,77.263672 424.33984,77.28125 C 425.62438,79.433711 427.37846,81.130487 429.58398,82.371094 L 429.59961,82.380859 429.61719,82.390625 C 431.88279,83.610566 434.39967,84.191406 437.16797,84.191406 438.78392,84.191406 440.42859,83.891028 442.0918,83.326172 443.77076,82.765884 445.24574,82.013966 446.4707,81.044922 447.42817,80.308151 448.03196,79.323349 447.95703,77.974609 447.88981,76.764595 447.30306,75.839095 446.48047,75.113281 L 446.46484,75.099609 446.44727,75.085938 C 445.66614,74.424988 444.73057,74.141097 443.73438,74.179688 442.76427,74.188847 441.92439,74.483965 441.16211,75.042969 L 441.1543,75.048828 441.14648,75.056641 C 440.74569,75.357236 440.16862,75.660192 439.31445,75.972656 438.5581,76.230862 437.84316,76.353516 437.16797,76.353516 435.7842,76.353516 434.61833,76.048014 433.65039,75.498047 432.72942,74.974767 432.05415,74.242978 431.50781,73.390625 H 445.55859 C 446.60273,73.390625 447.57877,73.071818 448.38867,72.324219 L 448.41797,72.298828 448.44531,72.269531 C 449.21931,71.495534 449.61133,70.506023 449.61133,69.427734 449.61133,66.822567 449.11493,64.451882 448.06641,62.347656 447.03424,60.18546 445.54202,58.512331 443.52539,57.285156 441.48702,56.01483 439.13325,55.423828 436.5,55.423828 Z M 443.52539,57.285156 C 443.52963,57.287797 443.53483,57.288369 443.53906,57.291016 L 443.51562,57.277344 C 443.51931,57.279582 443.52171,57.282915 443.52539,57.285156 Z M 448.06641,62.347656 C 448.06956,62.35427 448.07498,62.358612 448.07812,62.365234 L 448.06055,62.330078 C 448.06329,62.335569 448.06367,62.342162 448.06641,62.347656 Z M 443.73438,74.179688 C 443.74917,74.179548 443.75858,74.166016 443.77344,74.166016 L 443.66211,74.169922 C 443.68721,74.168527 443.70935,74.180657 443.73438,74.179688 Z M 446.4707,81.044922 C 446.46648,81.048175 446.46518,81.053397 446.46094,81.056641 L 446.49023,81.035156 C 446.48483,81.03945 446.47612,81.040637 446.4707,81.044922 Z M 429.24609,57.302734 C 429.24979,57.300609 429.25216,57.297044 429.25586,57.294922 L 429.23633,57.306641 C 429.23938,57.304838 429.24304,57.304534 429.24609,57.302734 Z M 436.5,63.261719 C 437.6626,63.261719 438.54288,63.530241 439.19531,63.958984 439.86177,64.396944 440.37211,65.032811 440.7793,65.820312 H 431.64844 C 432.07465,65.146164 432.51839,64.497435 433.17969,64.082031 434.02438,63.569487 435.11938,63.261719 436.5,63.261719 Z"
         id="path6621"
         inkscape:original-d="M 437.16886,82.190532 Q 433.46498,82.190532 430.56436,80.628657 427.70836,79.022157 426.05723,76.255407 424.45073,73.444032 424.45073,69.829407 424.45073,66.170157 425.96798,63.403407 427.52986,60.592032 430.25198,59.030157 432.97411,57.423657 436.49948,57.423657 439.98023,57.423657 442.47923,58.985532 444.97823,60.502782 446.27236,63.224907 447.61111,65.902407 447.61111,69.427782 447.61111,70.275657 447.03098,70.855782 446.45086,71.391282 445.55836,71.391282 H 427.57448 V 67.821282 H 445.42448 L 443.59486,69.070782 Q 443.55023,66.839532 442.70236,65.099157 441.85448,63.314157 440.29261,62.287782 438.73073,61.261407 436.49948,61.261407 433.95586,61.261407 432.12623,62.377032 430.34123,63.492657 429.40411,65.456157 428.46698,67.375032 428.46698,69.829407 428.46698,72.283782 429.58261,74.202657 430.69823,76.121532 432.66173,77.237157 434.62523,78.352782 437.16886,78.352782 438.55223,78.352782 439.98023,77.861907 441.45286,77.326407 442.34536,76.657032 443.01473,76.166157 443.77336,76.166157 444.57661,76.121532 445.15673,76.612407 445.91536,77.281782 445.95998,78.085032 446.00461,78.888282 445.24598,79.468407 443.72873,80.673282 441.45286,81.431907 439.22161,82.190532 437.16886,82.190532 Z"
         style="fill:#1e293b;fill-opacity:1" /><path
         d="M 461.98047,55.423828 C 460.2408,55.423828 458.56339,55.715761 456.94531,56.298828 455.25541,56.877424 453.82401,57.793744 452.68359,59.082031 451.41157,60.487507 450.83203,62.208241 450.83203,64.162109 450.83203,66.533866 451.7245,68.440647 453.51172,70.029297 L 453.51953,70.037109 453.52734,70.044922 C 455.26556,71.556413 457.83852,72.545472 461.01172,73.173828 L 461.0293,73.177734 461.04688,73.181641 C 463.29924,73.585912 464.36716,73.957213 464.9668,74.412109 L 464.98047,74.421875 464.99219,74.431641 C 465.43445,74.755966 465.47211,75.031958 465.4707,75.074219 465.46901,75.125022 465.42975,75.355299 464.99609,75.621094 L 464.98242,75.628906 464.9707,75.636719 C 464.50844,75.929483 463.64979,76.173828 462.11523,76.173828 460.99434,76.173828 460.01555,75.975087 459.16602,75.621094 458.23518,75.187609 457.69839,74.802385 457.44531,74.519531 L 457.43164,74.503906 457.41797,74.488281 C 456.68868,73.706905 455.7712,73.248139 454.70703,73.125 453.4452,72.941284 452.37804,73.383537 451.47461,74.099609 450.56216,74.802203 449.98964,75.765908 449.82617,76.910156 L 449.82031,76.953125 449.81641,76.994141 C 449.68881,78.270152 450.08926,79.271646 450.92773,80.166016 L 450.94922,80.189453 450.97266,80.212891 C 452.21007,81.450309 453.85093,82.402806 455.79297,83.126953 L 455.8125,83.134766 455.83203,83.142578 C 457.84916,83.848574 460.0071,84.191406 462.29297,84.191406 464.59856,84.191406 466.67853,83.826956 468.4043,83.019531 H 468.40625 C 470.10874,82.236561 471.47755,81.148442 472.43555,79.679688 473.41518,78.223736 473.88672,76.640682 473.88672,74.871094 473.88672,73.350728 473.5216,71.942736 472.73438,70.693359 471.93011,69.387172 470.681,68.366341 469.16016,67.570312 467.64829,66.763399 465.68629,66.148573 463.36133,65.683594 461.81499,65.368598 460.7496,65.074334 460.0625,64.806641 459.52102,64.568049 459.3271,64.400238 459.29688,64.373047 459.24981,64.269443 459.20508,64.167282 459.20508,64.027344 459.20508,64.027344 459.25291,63.955534 459.42578,63.863281 460.01588,63.579355 460.81284,63.394531 461.89062,63.394531 462.86734,63.394531 463.65237,63.510042 464.28711,63.707031 464.81456,63.870724 465.35723,64.185837 465.90625,64.712891 L 465.91602,64.722656 465.92578,64.732422 C 466.67687,65.433456 467.58461,65.857358 468.58398,66.039062 469.69018,66.240189 470.79265,66.079811 471.76953,65.408203 L 471.80469,65.384766 471.83594,65.359375 C 472.74167,64.680074 473.31835,63.84016 473.39258,62.578125 473.45593,61.437703 473.03579,60.468099 472.33984,59.662109 471.20323,58.271963 469.73702,57.242241 467.96289,56.511719 466.16296,55.770572 464.158,55.423828 461.98047,55.423828 Z M 472.33984,59.662109 C 472.34838,59.672546 472.36064,59.678975 472.36914,59.689453 L 472.32227,59.632812 C 472.32995,59.641596 472.33222,59.653286 472.33984,59.662109 Z M 472.73438,70.693359 C 472.73676,70.697239 472.74176,70.69924 472.74414,70.703125 L 472.72852,70.677734 C 472.73155,70.682526 472.73135,70.688563 472.73438,70.693359 Z M 472.43555,79.679688 C 472.43217,79.684705 472.43112,79.690298 472.42773,79.695312 L 472.44922,79.664062 C 472.4454,79.669951 472.43938,79.673812 472.43555,79.679688 Z M 451.47461,74.099609 C 451.4788,74.096384 451.48017,74.091105 451.48438,74.087891 L 451.44922,74.113281 C 451.45687,74.107163 451.46694,74.105689 451.47461,74.099609 Z M 454.70703,73.125 C 454.7232,73.127354 454.73572,73.11853 454.75195,73.121094 L 454.63867,73.105469 C 454.66332,73.107934 454.68254,73.122166 454.70703,73.125 Z M 452.68359,59.082031 C 452.68727,59.07797 452.68772,59.072415 452.69141,59.068359 L 452.67188,59.091797 C 452.67529,59.087925 452.68017,59.085897 452.68359,59.082031 Z M 456.94531,56.298828 C 456.95185,56.296589 456.95634,56.291292 456.96289,56.289062 L 456.92773,56.300781 C 456.93332,56.29876 456.93972,56.300842 456.94531,56.298828 Z"
         id="path6623"
         inkscape:original-d="M 462.29277,82.190532 Q 459.16902,82.190532 456.49152,81.253407 453.85864,80.271657 452.38602,78.799032 451.71664,78.085032 451.80589,77.192532 451.93977,76.255407 452.69839,75.675282 453.59089,74.961282 454.43877,75.095157 455.33127,75.184407 455.95602,75.853782 456.71464,76.701657 458.36577,77.460282 460.06152,78.174282 462.11427,78.174282 464.70252,78.174282 466.04127,77.326407 467.42464,76.478532 467.46927,75.139782 467.51389,73.801032 466.17514,72.819282 464.88102,71.837532 461.40027,71.212782 456.89314,70.320282 454.84039,68.535282 452.83227,66.750282 452.83227,64.162032 452.83227,61.886157 454.17102,60.413532 455.50977,58.896282 457.60714,58.182282 459.70452,57.423657 461.98039,57.423657 464.92564,57.423657 467.20152,58.360782 469.47739,59.297907 470.81614,60.949032 471.44089,61.663032 471.39627,62.466282 471.35164,63.224907 470.63764,63.760407 469.92364,64.251282 468.94189,64.072782 467.96014,63.894282 467.29077,63.269532 466.17514,62.198532 464.88102,61.796907 463.58689,61.395282 461.89114,61.395282 459.92764,61.395282 458.54427,62.064657 457.20552,62.734032 457.20552,64.028157 457.20552,64.831407 457.60714,65.500782 458.05339,66.125532 459.30289,66.661032 460.55239,67.151907 462.96214,67.642782 466.30902,68.312157 468.22789,69.338532 470.19139,70.364907 471.03927,71.748282 471.88714,73.087032 471.88714,74.872032 471.88714,76.924782 470.77152,78.575907 469.70052,80.227032 467.55852,81.208782 465.46114,82.190532 462.29277,82.190532 Z"
         style="fill:#1e293b;fill-opacity:1" /></g><text
       xml:space="preserve"
       style="font-style:normal;font-variant:normal;font-weight:bold;font-stretch:normal;font-size:44.625px;line-height:1.25;font-family:Comfortaa;-inkscape-font-specification:'Comfortaa Bold';fill:#f1f5f9;fill-opacity:1;stroke:none;stroke-width:1;stroke-dasharray:none"
       x="33.669975"
       y="82.012032"
       id="text398"><tspan
         sodipodi:role="line"
         id="tspan396"
         style="font-style:normal;font-variant:normal;font-weight:bold;font-stretch:normal;font-size:44.625px;font-family:Comfortaa;-inkscape-font-specification:'Comfortaa Bold';fill:#f1f5f9;fill-opacity:1;stroke:none;stroke-width:1;stroke-dasharray:none"
         x="33.669975"
         y="82.012032">Ptolemy's Epicycles</tspan></text><path
       id="rect1259-5"
       style="fill:#1e293b;fill-opacity:1;stroke:none;stroke-width:0.448264;stroke-linecap:round;stroke-dasharray:none;stop-color:#000000"
       d="M 69.959645,149.82112 C 65.458049,149.24354 60.293437,152.13364 59.848167,157.03142 59.609269,159.65921 60.044701,162.30096 61.774844,164.08585 L 58.253317,165.85425 57.23072,172.46288 55.919065,193.60795 56.898779,194.63794 58.564006,195.15498 57.13594,210.28576 70.168915,211.40193 71.576332,196.55655 73.186454,196.29063 74.254075,194.90382 76.620624,175.13341 76.721139,167.83121 75.854785,166.38473 73.896714,165.08731 C 75.879375,163.62264 77.028269,161.47649 77.269461,158.88375 77.655194,154.73727 74.693775,150.42854 69.959645,149.82112 Z"
       sodipodi:nodetypes="sccccccccccccccccss" /><path
       id="rect1259"
       style="fill:#e2e8f0;fill-opacity:1;stroke:none;stroke-width:0.425278;stroke-linecap:round;stop-color:#000000"
       d="M 71.909145,166.16058 74.446553,167.89199 74.577043,174.73625 72.601699,193.91141 71.053375,194.43703 72.315813,175.33001 72.01946,170.62419 68.14165,208.85755 65.055946,208.83293 66.266317,193.74367 66.021088,187.9485 63.637827,208.68348 58.843053,208.03707 60.097352,194.35429 62.265669,193.53059 63.801943,176.03043 63.528715,170.69052 60.891846,192.17185 59.314975,192.81636 57.822477,192.15208 58.739065,172.8755 59.75065,166.81857 62.610547,165.3401 64.766095,165.41043 C 61.911511,164.12815 60.988453,161.45707 61.27901,158.16416 61.645924,154.00591 64.979421,151.64506 68.358194,151.83317 72.123184,152.04278 75.267317,155.09909 74.900397,159.25736 74.627073,162.35492 73.151004,164.69322 70.375896,165.61319 Z"
       sodipodi:nodetypes="ccccccccccccccccccccccccssscc" /><path
       style="fill:#1e293b;fill-opacity:1;stroke:none;stroke-width:1.14172;stroke-linecap:round;stop-color:#000000"
       d="M 384.51891,108.33921 391.13273,104.54188 482.11457,145.46095 485.59315,152.08066 482.04968,158.44758 406.96672,190.20463 406.99258,283.28002 392.96685,284.77269 383.84966,280.66554 Z"
       id="path2104"
       sodipodi:nodetypes="cccccccccc" /><path
       style="fill:#22c55e;fill-opacity:1;stroke:none;stroke-width:1.06997;stroke-linecap:round;stop-color:#000000"
       d="M 390.37422,113.86978 395.31394,110.62571 402.19745,113.45598 403.96244,124.89353 404.63994,114.24429 478.06124,147.08559 481.63583,152.34543 478.00043,156.73915 407.22548,185.79607 404.13988,136.03248 402.31457,280.17737 394.49349,281.58644 388.41222,278.25868 Z"
       id="path6258"
       sodipodi:nodetypes="cccccccccccccc" /><path
       style="fill:#1e293b;fill-opacity:1;stroke:none;stroke-width:0.397233px;stroke-linecap:butt;stroke-linejoin:miter;stroke-opacity:1"
       d="M 135.24419,206.09139 164.31383,209.64413 171.10716,208.57091 174.6599,179.50128 146.58527,175.59426 138.3281,176.96446 Z"
       id="path2340"
       sodipodi:nodetypes="ccccccc" /><path
       id="path2340-7"
       style="fill:#fed7aa;fill-opacity:1;stroke:none;stroke-width:0.342504px;stroke-linecap:butt;stroke-linejoin:miter;stroke-opacity:1"
       d="M 147.29931,178.09226 140.17911,179.27325 137.52066,204.38777 163.03704,207.62448 167.97578,206.49036 170.96462,181.43661 Z M 143.48038,183.26966 163.52403,186.04804 161.24376,202.83135 Z M 146.87581,184.57623 160.73091,199.12993 162.27947,186.84514 Z M 142.38418,188.80164 144.27595,191.00005 149.24482,196.77385 153.14261,201.30296 155.08712,203.56232 141.37324,200.83472 Z M 144.13454,191.91854 143.59248,199.35687 152.48521,201.66372 Z"
       sodipodi:nodetypes="cccccccccccccccccccccccccc" /></g></svg>
